<svg xmlns="http://www.w3.org/2000/svg" width="25.313" height="32.031" viewBox="0 0 25.313 32.031">
  <metadata><?xpacket begin="﻿" id="W5M0MpCehiHzreSzNTczkc9d"?>
<x:xmpmeta xmlns:x="adobe:ns:meta/" x:xmptk="Adobe XMP Core 5.6-c138 79.159824, 2016/09/14-01:09:01        ">
   <rdf:RDF xmlns:rdf="http://www.w3.org/1999/02/22-rdf-syntax-ns#">
      <rdf:Description rdf:about=""/>
   </rdf:RDF>
</x:xmpmeta>
                                                                                                    
                                                                                                    
                                                                                                    
                                                                                                    
                                                                                                    
                                                                                                    
                                                                                                    
                                                                                                    
                                                                                                    
                                                                                                    
                                                                                                    
                                                                                                    
                                                                                                    
                                                                                                    
                                                                                                    
                                                                                                    
                                                                                                    
                                                                                                    
                                                                                                    
                                                                                                    
                           
<?xpacket end="w"?></metadata>
<defs>
    <style>
      .cls-1 {
        fill: #914289;
        fill-rule: evenodd;
      }
    </style>
  </defs>
  <path id="Forma_1" data-name="Forma 1" class="cls-1" d="M155.317,136.8l-1.428-18.022a2.251,2.251,0,0,0-2.232-2.071h-2.821V116.58a6.182,6.182,0,1,0-12.363,0v0.127h-2.821a2.251,2.251,0,0,0-2.232,2.068L129.992,136.8a5.21,5.21,0,0,0,5.191,5.613h14.942A5.212,5.212,0,0,0,155.317,136.8Zm-16.971-20.22a4.309,4.309,0,1,1,8.617,0v0.127h-8.617V116.58Zm14.225,22.89a3.3,3.3,0,0,1-2.446,1.07H135.183a3.338,3.338,0,0,1-3.324-3.591l1.429-18.028a0.367,0.367,0,0,1,.364-0.338h2.821v2.311a0.937,0.937,0,1,0,1.873,0v-2.311h8.617v2.311a0.937,0.937,0,1,0,1.873,0v-2.311h2.821a0.368,0.368,0,0,1,.364.341l1.428,18.022A3.306,3.306,0,0,1,152.571,139.47Z" transform="translate(-130 -110.375)"/>
</svg>
