<svg xmlns="http://www.w3.org/2000/svg" width="25.531" height="25.719" viewBox="0 0 25.531 25.719">
  <metadata><?xpacket begin="﻿" id="W5M0MpCehiHzreSzNTczkc9d"?>
<x:xmpmeta xmlns:x="adobe:ns:meta/" x:xmptk="Adobe XMP Core 5.6-c138 79.159824, 2016/09/14-01:09:01        ">
   <rdf:RDF xmlns:rdf="http://www.w3.org/1999/02/22-rdf-syntax-ns#">
      <rdf:Description rdf:about=""/>
   </rdf:RDF>
</x:xmpmeta>
                                                                                                    
                                                                                                    
                                                                                                    
                                                                                                    
                                                                                                    
                                                                                                    
                                                                                                    
                                                                                                    
                                                                                                    
                                                                                                    
                                                                                                    
                                                                                                    
                                                                                                    
                                                                                                    
                                                                                                    
                                                                                                    
                                                                                                    
                                                                                                    
                                                                                                    
                                                                                                    
                           
<?xpacket end="w"?></metadata>
<defs>
    <style>
      .cls-1 {
        fill: #914289;
        fill-rule: evenodd;
      }
    </style>
  </defs>
  <path id="user" class="cls-1" d="M245.64,129.054c-7.162,0-12.773,3.332-12.773,7.586v1.309a1.034,1.034,0,1,0,2.068,0V136.64c0-2.986,4.9-5.509,10.7-5.509s10.705,2.523,10.705,5.509v1.309a1.034,1.034,0,1,0,2.068,0V136.64C258.413,132.386,252.8,129.054,245.64,129.054Zm6.241-10.415a6.25,6.25,0,1,0-6.2,7.2,6.362,6.362,0,0,0,.931-0.069A6.281,6.281,0,0,0,251.881,118.639Zm-5.571,5.075a4.186,4.186,0,0,1-4.751-3.538A4.184,4.184,0,1,1,246.31,123.714Z" transform="translate(-232.875 -113.281)"/>
</svg>
