<svg xmlns="http://www.w3.org/2000/svg" width="25.593" height="22.718" viewBox="0 0 25.593 22.718">
  <metadata><?xpacket begin="﻿" id="W5M0MpCehiHzreSzNTczkc9d"?>
<x:xmpmeta xmlns:x="adobe:ns:meta/" x:xmptk="Adobe XMP Core 5.6-c138 79.159824, 2016/09/14-01:09:01        ">
   <rdf:RDF xmlns:rdf="http://www.w3.org/1999/02/22-rdf-syntax-ns#">
      <rdf:Description rdf:about=""/>
   </rdf:RDF>
</x:xmpmeta>
                                                                                                    
                                                                                                    
                                                                                                    
                                                                                                    
                                                                                                    
                                                                                                    
                                                                                                    
                                                                                                    
                                                                                                    
                                                                                                    
                                                                                                    
                                                                                                    
                                                                                                    
                                                                                                    
                                                                                                    
                                                                                                    
                                                                                                    
                                                                                                    
                                                                                                    
                                                                                                    
                           
<?xpacket end="w"?></metadata>
<defs>
    <style>
      .cls-1 {
        fill: #914289;
        fill-rule: evenodd;
      }
    </style>
  </defs>
  <path id="wishlist" class="cls-1" d="M204.783,116.689h0Zm0,0,0,0a7.205,7.205,0,0,0-10.217,0h0l-0.462.465-0.462-.465a7.2,7.2,0,0,0-10.219,0,7.294,7.294,0,0,0,0,10.274l9.95,10a1.031,1.031,0,0,0,1.462,0l9.95-10A7.3,7.3,0,0,0,204.787,116.693Zm-1.467,8.8-9.218,9.269-9.219-9.269a5.172,5.172,0,1,1,7.295-7.334l1.193,1.2a1.03,1.03,0,0,0,1.462,0l1.193-1.2h0l0,0a5.142,5.142,0,0,1,7.29,0l0,0A5.209,5.209,0,0,1,203.32,125.493Z" transform="translate(-181.313 -114.563)"/>
</svg>
